<svg width="216" height="19" viewBox="0 0 216 19" fill="none" xmlns="http://www.w3.org/2000/svg">
<path d="M9.62441 18.35C4.17441 18.35 0.0994141 14.6 0.0994141 9.3V9.25C0.0994141 4.15 4.09941 0.149999 9.52441 0.149999C12.5994 0.149999 14.7744 1.1 16.6244 2.7L13.7744 6.125C12.5244 5.075 11.2744 4.475 9.54941 4.475C7.02441 4.475 5.07441 6.6 5.07441 9.275V9.325C5.07441 12.15 7.04941 14.175 9.82441 14.175C10.9994 14.175 11.8994 13.925 12.6244 13.45V11.325H9.17441V7.775H17.2244V15.65C15.3744 17.175 12.7994 18.35 9.62441 18.35ZM28.7133 18.35C23.3133 18.35 19.3133 14.325 19.3133 9.3V9.25C19.3133 4.225 23.3633 0.149999 28.7633 0.149999C34.1633 0.149999 38.1633 4.175 38.1633 9.2V9.25C38.1633 14.275 34.1133 18.35 28.7133 18.35ZM28.7633 13.975C31.4383 13.975 33.2133 11.825 33.2133 9.3V9.25C33.2133 6.725 31.3883 4.525 28.7133 4.525C26.0633 4.525 24.2883 6.675 24.2883 9.2V9.25C24.2883 11.775 26.1133 13.975 28.7633 13.975ZM48.7396 18V14.6H40.2646L39.4646 11.175L48.5396 0.374999H53.4396V10.975H55.6646V14.6H53.4396V18H48.7396ZM44.5646 11H48.7396V5.975L44.5646 11ZM57.926 18V0.499999H65.426C69.851 0.499999 72.701 2.775 72.701 6.65V6.7C72.701 10.825 69.526 13 65.176 13H62.776V18H57.926ZM62.776 9.2H65.076C66.801 9.2 67.851 8.3 67.851 6.925V6.875C67.851 5.375 66.801 4.575 65.051 4.575H62.776V9.2ZM74.7473 18V0.499999H83.0223C85.6973 0.499999 87.5473 1.2 88.7223 2.4C89.7473 3.4 90.2723 4.75 90.2723 6.475V6.525C90.2723 9.2 88.8473 10.975 86.6723 11.9L90.8473 18H85.2473L81.7223 12.7H81.6723H79.5973V18H74.7473ZM79.5973 8.9H82.7973C84.4473 8.9 85.3973 8.1 85.3973 6.825V6.775C85.3973 5.4 84.3973 4.7 82.7723 4.7H79.5973V8.9ZM101.516 18.35C96.116 18.35 92.116 14.325 92.116 9.3V9.25C92.116 4.225 96.166 0.149999 101.566 0.149999C106.966 0.149999 110.966 4.175 110.966 9.2V9.25C110.966 14.275 106.916 18.35 101.516 18.35ZM101.566 13.975C104.241 13.975 106.016 11.825 106.016 9.3V9.25C106.016 6.725 104.191 4.525 101.516 4.525C98.866 4.525 97.091 6.675 97.091 9.2V9.25C97.091 11.775 98.916 13.975 101.566 13.975ZM113.492 18V0.499999H127.492V4.75H118.342V7.725H126.617V11.75H118.342V18H113.492ZM129.803 18V0.499999H134.678V18H129.803ZM142.157 18V4.75H136.907V0.499999H152.257V4.75H147.007V18H142.157ZM154.436 18V16.7H155.336V18H154.436ZM174.413 15.225C173.963 15.6917 173.488 16.1167 172.988 16.5C172.504 16.8667 171.979 17.1833 171.413 17.45C170.846 17.7167 170.238 17.925 169.588 18.075C168.938 18.225 168.213 18.3 167.413 18.3C166.146 18.3 164.979 18.0667 163.913 17.6C162.846 17.1333 161.921 16.5 161.138 15.7C160.354 14.8833 159.738 13.925 159.288 12.825C158.854 11.725 158.638 10.5417 158.638 9.275C158.638 8.025 158.854 6.85 159.288 5.75C159.738 4.65 160.354 3.69167 161.138 2.875C161.921 2.04167 162.854 1.39167 163.938 0.924999C165.021 0.441666 166.204 0.2 167.488 0.2C168.288 0.2 169.004 0.266666 169.638 0.399999C170.288 0.533332 170.888 0.724999 171.438 0.974999C171.988 1.20833 172.496 1.5 172.963 1.85C173.429 2.18333 173.879 2.55833 174.313 2.975L172.963 4.425C172.213 3.725 171.404 3.15 170.538 2.7C169.688 2.25 168.663 2.025 167.463 2.025C166.496 2.025 165.596 2.20833 164.763 2.575C163.946 2.94167 163.229 3.45 162.613 4.1C162.013 4.75 161.538 5.51667 161.188 6.4C160.854 7.26667 160.688 8.20833 160.688 9.225C160.688 10.2417 160.854 11.1917 161.188 12.075C161.538 12.9583 162.013 13.725 162.613 14.375C163.229 15.025 163.946 15.5417 164.763 15.925C165.596 16.2917 166.496 16.475 167.463 16.475C168.663 16.475 169.696 16.2583 170.563 15.825C171.429 15.375 172.279 14.75 173.113 13.95L174.413 15.225ZM194.456 9.225C194.456 10.4417 194.24 11.6 193.806 12.7C193.373 13.7833 192.765 14.7417 191.981 15.575C191.198 16.4083 190.256 17.075 189.156 17.575C188.056 18.0583 186.84 18.3 185.506 18.3C184.173 18.3 182.956 18.0583 181.856 17.575C180.773 17.0917 179.84 16.4417 179.056 15.625C178.273 14.7917 177.665 13.8333 177.231 12.75C176.815 11.65 176.606 10.4917 176.606 9.275C176.606 8.05833 176.823 6.90833 177.256 5.825C177.69 4.725 178.298 3.75833 179.081 2.925C179.865 2.09167 180.806 1.43333 181.906 0.949999C183.006 0.449999 184.223 0.2 185.556 0.2C186.89 0.2 188.098 0.441666 189.181 0.924999C190.281 1.40833 191.223 2.06667 192.006 2.9C192.79 3.71667 193.39 4.675 193.806 5.775C194.24 6.85833 194.456 8.00833 194.456 9.225ZM192.406 9.275C192.406 8.275 192.231 7.33333 191.881 6.45C191.548 5.56667 191.073 4.8 190.456 4.15C189.84 3.5 189.106 2.98333 188.256 2.6C187.423 2.21667 186.506 2.025 185.506 2.025C184.506 2.025 183.581 2.21667 182.731 2.6C181.898 2.96667 181.181 3.475 180.581 4.125C179.981 4.775 179.506 5.54167 179.156 6.425C178.823 7.29167 178.656 8.225 178.656 9.225C178.656 10.225 178.823 11.1667 179.156 12.05C179.506 12.9333 179.99 13.7 180.606 14.35C181.223 15 181.948 15.5167 182.781 15.9C183.631 16.2833 184.556 16.475 185.556 16.475C186.556 16.475 187.473 16.2917 188.306 15.925C189.156 15.5417 189.881 15.025 190.481 14.375C191.081 13.725 191.548 12.9667 191.881 12.1C192.231 11.2167 192.406 10.275 192.406 9.275ZM213.396 3.825L207.021 13.2H206.921L200.546 3.85V18H198.621V0.499999H200.621L206.996 10.05L213.371 0.499999H215.371V18H213.396V3.825Z" fill="white"/>
</svg>
