<svg width="190" height="19" viewBox="0 0 190 19" fill="none" xmlns="http://www.w3.org/2000/svg">
<path d="M9.84463 18.35C4.39463 18.35 0.319629 14.6 0.319629 9.3V9.25C0.319629 4.15 4.31963 0.149999 9.74463 0.149999C12.8196 0.149999 14.9946 1.1 16.8446 2.7L13.9946 6.125C12.7446 5.075 11.4946 4.475 9.76963 4.475C7.24463 4.475 5.29463 6.6 5.29463 9.275V9.325C5.29463 12.15 7.26963 14.175 10.0446 14.175C11.2196 14.175 12.1196 13.925 12.8446 13.45V11.325H9.39463V7.775H17.4446V15.65C15.5946 17.175 13.0196 18.35 9.84463 18.35ZM28.9335 18.35C23.5335 18.35 19.5335 14.325 19.5335 9.3V9.25C19.5335 4.225 23.5835 0.149999 28.9835 0.149999C34.3835 0.149999 38.3835 4.175 38.3835 9.2V9.25C38.3835 14.275 34.3335 18.35 28.9335 18.35ZM28.9835 13.975C31.6585 13.975 33.4335 11.825 33.4335 9.3V9.25C33.4335 6.725 31.6085 4.525 28.9335 4.525C26.2835 4.525 24.5085 6.675 24.5085 9.2V9.25C24.5085 11.775 26.3335 13.975 28.9835 13.975ZM48.9599 18V14.6H40.4849L39.6849 11.175L48.7599 0.374999H53.6599V10.975H55.8849V14.6H53.6599V18H48.9599ZM44.7849 11H48.9599V5.975L44.7849 11ZM58.1462 18V0.499999H65.6462C70.0712 0.499999 72.9212 2.775 72.9212 6.65V6.7C72.9212 10.825 69.7462 13 65.3962 13H62.9962V18H58.1462ZM62.9962 9.2H65.2962C67.0212 9.2 68.0712 8.3 68.0712 6.925V6.875C68.0712 5.375 67.0212 4.575 65.2712 4.575H62.9962V9.2ZM74.9675 18V0.499999H83.2425C85.9175 0.499999 87.7675 1.2 88.9425 2.4C89.9675 3.4 90.4925 4.75 90.4925 6.475V6.525C90.4925 9.2 89.0675 10.975 86.8925 11.9L91.0675 18H85.4675L81.9425 12.7H81.8925H79.8175V18H74.9675ZM79.8175 8.9H83.0175C84.6675 8.9 85.6175 8.1 85.6175 6.825V6.775C85.6175 5.4 84.6175 4.7 82.9925 4.7H79.8175V8.9ZM101.736 18.35C96.3362 18.35 92.3362 14.325 92.3362 9.3V9.25C92.3362 4.225 96.3862 0.149999 101.786 0.149999C107.186 0.149999 111.186 4.175 111.186 9.2V9.25C111.186 14.275 107.136 18.35 101.736 18.35ZM101.786 13.975C104.461 13.975 106.236 11.825 106.236 9.3V9.25C106.236 6.725 104.411 4.525 101.736 4.525C99.0862 4.525 97.3112 6.675 97.3112 9.2V9.25C97.3112 11.775 99.1362 13.975 101.786 13.975ZM113.713 18V0.499999H127.713V4.75H118.563V7.725H126.838V11.75H118.563V18H113.713ZM130.024 18V0.499999H134.899V18H130.024ZM142.377 18V4.75H137.127V0.499999H152.477V4.75H147.227V18H142.377ZM154.656 18V16.7H155.556V18H154.656ZM166.192 18.275C162.017 18.275 159.117 15.625 159.117 10.25V0.499999H159.667V10.25C159.667 15.275 162.342 17.775 166.217 17.775C170.142 17.775 172.717 15.275 172.717 10.275V0.499999H173.267V10.25C173.267 15.6 170.417 18.275 166.192 18.275ZM183.99 18.25C181.315 18.25 178.94 17.225 177.065 15.45L177.465 15.05C179.24 16.775 181.49 17.75 184.04 17.75C187.315 17.75 189.415 15.975 189.415 13.625V13.575C189.415 11.425 188.115 10.275 183.69 9.375C179.365 8.5 177.715 7.225 177.715 4.775V4.725C177.715 2.275 180.115 0.249999 183.415 0.249999C185.715 0.249999 187.765 1.025 189.365 2.25L189.015 2.7C187.465 1.525 185.515 0.749999 183.365 0.749999C180.29 0.749999 178.265 2.65 178.265 4.7V4.75C178.265 6.875 179.615 8 183.915 8.875C188.465 9.8 189.965 11.175 189.965 13.55V13.6C189.965 16.2 187.69 18.25 183.99 18.25Z" fill="white"/>
</svg>
